<?xml version="1.0" encoding="utf-8"?>
<!-- Generator: Adobe Illustrator 15.0.0, SVG Export Plug-In . SVG Version: 6.00 Build 0)  -->
<!DOCTYPE svg PUBLIC "-//W3C//DTD SVG 1.1//EN" "http://www.w3.org/Graphics/SVG/1.1/DTD/svg11.dtd">
<svg version="1.1" id="Layer_1" xmlns="http://www.w3.org/2000/svg" xmlns:xlink="http://www.w3.org/1999/xlink" x="0px" y="0px"
	 width="720px" height="720px" viewBox="0 0 720 720" enable-background="new 0 0 720 720" xml:space="preserve">
<title>icon07_microcontroller</title>
<g id="Layer_2">
	<g id="Layer_1-2">
		<circle cx="170.514" cy="162.558" r="14.161"/>
		<path d="M559.223,148.397c-7.82,0-14.161,6.34-14.161,14.161s6.34,14.161,14.161,14.161c7.82,0,14.161-6.34,14.161-14.161v0
			C573.375,154.741,567.04,148.406,559.223,148.397z"/>
		<path d="M170.514,537.105c-7.825-0.004-14.171,6.337-14.175,14.161c-0.004,7.825,6.336,14.172,14.161,14.176
			c7.825,0.004,14.171-6.336,14.175-14.161c0-0.005,0-0.01,0-0.015C184.668,543.449,178.332,537.113,170.514,537.105z"/>
		<path d="M559.223,537.105c-7.824-0.004-14.171,6.336-14.176,14.161c-0.004,7.825,6.336,14.172,14.161,14.176
			s14.172-6.336,14.176-14.161c0-0.005,0-0.01,0-0.015C573.375,543.45,567.04,537.115,559.223,537.105z"/>
		<path d="M468.856,239.932H259.567c-6.602,0.003-11.953,5.355-11.957,11.957v209.289c0.003,6.602,5.354,11.953,11.957,11.956
			h209.289c6.602-0.003,11.953-5.354,11.956-11.956V251.889C480.81,245.287,475.458,239.936,468.856,239.932z M456.899,449.221
			H271.524V263.845H456.9L456.899,449.221z"/>
		<path d="M708.044,204.413c6.603,0.003,11.958-5.348,11.961-11.952c0.002-6.604-5.349-11.958-11.952-11.961
			c-0.003,0-0.006,0-0.009,0h-47.213v-35.884h47.213c6.603,0.003,11.958-5.348,11.961-11.952
			c0.002-6.603-5.349-11.958-11.952-11.961c-0.003,0-0.006,0-0.009,0h-47.213v-17.942c-0.024-23.105-18.749-41.83-41.854-41.855
			h-48.469v-47.84c0-6.604-5.353-11.957-11.956-11.957s-11.957,5.353-11.957,11.957v47.84h-35.884v-47.84
			c0-6.604-5.353-11.957-11.956-11.957s-11.956,5.353-11.956,11.957v47.84h-35.885v-47.84c0.003-6.604-5.349-11.958-11.951-11.961
			c-6.604-0.002-11.959,5.348-11.961,11.952c0,0.003,0,0.006,0,0.009v47.84h-35.885v-47.84c0.003-6.604-5.349-11.958-11.951-11.961
			c-6.604-0.002-11.959,5.348-11.961,11.952c0,0.003,0,0.006,0,0.009v47.84H331.32v-47.84c0.003-6.604-5.349-11.958-11.951-11.961
			c-6.604-0.002-11.959,5.348-11.961,11.952c0,0.003,0,0.006,0,0.009v47.84h-35.884v-47.84c0.002-6.604-5.349-11.958-11.952-11.961
			c-6.603-0.002-11.958,5.348-11.961,11.952c0,0.003,0,0.006,0,0.009v47.84h-35.884v-47.84c0.002-6.604-5.349-11.958-11.952-11.961
			c-6.603-0.002-11.958,5.348-11.961,11.952c0,0.003,0,0.006,0,0.009v47.84H151.93v-47.84c0.002-6.604-5.349-11.958-11.952-11.961
			c-6.604-0.002-11.958,5.348-11.961,11.952c0,0.003,0,0.006,0,0.009v47.84h-17.3c-23.105,0.025-41.83,18.75-41.854,41.855v47.84
			H20.38c-6.603,0.002-11.954,5.358-11.952,11.961c0.002,6.6,5.352,11.949,11.952,11.952h48.483v35.884H20.38
			c-6.603,0.002-11.954,5.357-11.952,11.961c0.002,6.6,5.352,11.949,11.952,11.952h48.483v35.884H20.38
			c-6.603-0.002-11.958,5.349-11.961,11.952c-0.002,6.604,5.349,11.958,11.952,11.961c0.003,0,0.006,0,0.009,0h48.483v35.884H20.38
			c-6.603-0.002-11.958,5.349-11.961,11.952c-0.002,6.604,5.349,11.958,11.952,11.961c0.003,0,0.006,0,0.009,0h48.483v35.884H20.38
			c-6.603-0.002-11.958,5.348-11.961,11.951s5.349,11.959,11.952,11.962c0.003,0,0.006,0,0.009,0h48.483v35.884H20.38
			c-6.603-0.003-11.958,5.349-11.961,11.951c-0.002,6.604,5.349,11.959,11.952,11.962c0.003,0,0.006,0,0.009,0h48.483v35.884H20.38
			c-6.603,0-11.957,5.353-11.957,11.956s5.354,11.957,11.957,11.957h48.483v35.884H20.38c-6.603,0-11.957,5.353-11.957,11.956
			s5.354,11.956,11.957,11.956h48.483v17.942c0.024,23.105,18.749,41.83,41.854,41.854h47.198v47.841
			c-0.002,6.604,5.349,11.959,11.952,11.961c6.603,0.003,11.958-5.349,11.961-11.951c0-0.004,0-0.007,0-0.01v-47.841h35.884v47.841
			c0.002,6.604,5.358,11.954,11.961,11.952c6.6-0.003,11.949-5.353,11.952-11.952v-47.841h35.884v47.841
			c-0.002,6.604,5.349,11.959,11.952,11.961c6.604,0.003,11.958-5.349,11.961-11.951c0-0.004,0-0.007,0-0.01v-47.841h35.885v47.841
			c-0.003,6.604,5.348,11.959,11.951,11.961c6.604,0.003,11.959-5.349,11.961-11.951c0-0.004,0-0.007,0-0.01v-47.841h35.885v47.841
			c-0.003,6.604,5.348,11.959,11.951,11.961c6.604,0.003,11.959-5.349,11.961-11.951c0-0.004,0-0.007,0-0.01v-47.841H456.9v47.841
			c0,6.604,5.353,11.956,11.956,11.956s11.956-5.353,11.956-11.956v-47.841h35.884v47.841c0,6.604,5.354,11.956,11.957,11.956
			s11.956-5.353,11.956-11.956v-47.841h35.884v47.841c0,6.604,5.354,11.956,11.957,11.956s11.956-5.353,11.956-11.956v-47.841h18.57
			c23.105-0.024,41.83-18.749,41.854-41.854v-47.841h47.213c6.603,0,11.956-5.353,11.956-11.956s-5.354-11.956-11.956-11.956l0,0
			h-47.213v-35.884h47.213c6.603,0,11.956-5.354,11.956-11.957s-5.354-11.956-11.956-11.956l0,0h-47.213v-35.884h47.213
			c6.603,0.002,11.958-5.349,11.961-11.952c0.002-6.604-5.349-11.959-11.952-11.961c-0.003,0-0.006,0-0.009,0h-47.213v-35.885
			h47.213c6.603,0.003,11.958-5.348,11.961-11.951c0.002-6.604-5.349-11.958-11.952-11.961c-0.003,0-0.006,0-0.009,0h-47.213
			v-35.884h47.213c6.603,0.002,11.958-5.348,11.961-11.952c0.002-6.604-5.349-11.958-11.952-11.961c-0.003,0-0.006,0-0.009,0
			h-47.213v-35.884h47.213c6.603-0.002,11.954-5.357,11.951-11.961c-0.002-6.6-5.352-11.949-11.951-11.952h-47.213v-35.884H708.044z
			 M618.977,628.977H110.717c-9.906-0.008-17.934-8.036-17.941-17.942V102.761c0.007-9.906,8.036-17.934,17.941-17.942h508.259
			c9.905,0.008,17.934,8.036,17.941,17.942v26.792c-0.351,1.002-0.563,2.048-0.628,3.107c0.065,1.061,0.276,2.107,0.628,3.109v53.58
			c-0.837,1.987-0.837,4.228,0,6.215v53.582c-0.837,1.987-0.837,4.228,0,6.215v53.581c-0.837,1.988-0.837,4.229,0,6.216v53.581
			c-0.837,1.988-0.837,4.229,0,6.216v53.581c-0.837,1.987-0.837,4.229,0,6.216v53.581c-0.837,1.987-0.837,4.229,0,6.216v53.581
			c-0.837,1.987-0.837,4.229,0,6.216v56.688C636.91,620.939,628.882,628.969,618.977,628.977z"/>
		<rect y="1.328" display="none" width="717.563" height="717.563"/>
	</g>
</g>
</svg>
